{
  "accessors": [
    {
      "bufferView": 2,
      "componentType": 5126,
      "count": 16329,
      "max": [
        2.6970999240875244,
        0.4959999918937683,
        3.2365000247955322
      ],
      "min": [
        -2.6970999240875244,
        -0.713100016117096,
        -3.776099920272827
      ],
      "type": "VEC3"
    },
    {
      "bufferView": 2,
      "byteOffset": 195948,
      "componentType": 5126,
      "count": 16329,
      "max": [
        0.999955415725708,
        0.9999089241027832,
        0.9999074935913086
      ],
      "min": [
        -0.999955415725708,
        -1.0,
        -0.9999995231628418
      ],
      "type": "VEC3"
    },
    {
      "bufferView": 3,
      "componentType": 5126,
      "count": 16329,
      "max": [
        0.9999105930328369,
        0.9999622702598572,
        0.9999620914459229,
        1.0
      ],
      "min": [
        -1.0,
        -0.9999556541442871,
        -0.9998922348022461,
        -1.0
      ],
      "type": "VEC4"
    },
    {
      "bufferView": 1,
      "componentType": 5126,
      "count": 16329,
      "max": [
        0.9958000183105469,
        0.9933000206947327
      ],
      "min": [
        0.0066999997943639755,
        0.00419999985024333
      ],
      "type": "VEC2"
    },
    {
      "bufferView": 0,
      "componentType": 5125,
      "count": 88440,
      "type": "SCALAR"
    }
  ],
  "asset": {
    "extras": {
      "author": "Michael Kriat (https://sketchfab.com/2x2bit)",
      "license": "CC-BY-4.0 (http://creativecommons.org/licenses/by/4.0/)",
      "source": "https://sketchfab.com/3d-models/kazak-6457e92ee84f473099e839f903101f1b",
      "title": "Kazak"
    },
    "generator": "Sketchfab-12.68.0",
    "version": "2.0"
  },
  "bufferViews": [
    {
      "buffer": 0,
      "byteLength": 353760,
      "name": "floatBufferViews",
      "target": 34963
    },
    {
      "buffer": 0,
      "byteLength": 130632,
      "byteOffset": 353760,
      "byteStride": 8,
      "name": "floatBufferViews",
      "target": 34962
    },
    {
      "buffer": 0,
      "byteLength": 391896,
      "byteOffset": 484392,
      "byteStride": 12,
      "name": "floatBufferViews",
      "target": 34962
    },
    {
      "buffer": 0,
      "byteLength": 261264,
      "byteOffset": 876288,
      "byteStride": 16,
      "name": "floatBufferViews",
      "target": 34962
    }
  ],
  "buffers": [
    {
      "byteLength": 1137552,
      "uri": "scene.bin"
    }
  ],
  "images": [
    {
      "uri": "textures/kozak_baseColor.png"
    },
    {
      "uri": "textures/kozak_metallicRoughness.png"
    },
    {
      "uri": "textures/kozak_normal.png"
    }
  ],
  "materials": [
    {
      "doubleSided": true,
      "name": "kozak",
      "normalTexture": {
        "index": 2
      },
      "pbrMetallicRoughness": {
        "baseColorTexture": {
          "index": 0
        },
        "metallicRoughnessTexture": {
          "index": 1
        }
      }
    }
  ],
  "meshes": [
    {
      "name": "Object_0",
      "primitives": [
        {
          "attributes": {
            "NORMAL": 1,
            "POSITION": 0,
            "TANGENT": 2,
            "TEXCOORD_0": 3
          },
          "indices": 4,
          "material": 0,
          "mode": 4
        }
      ]
    }
  ],
  "nodes": [
    {
      "children": [
        1
      ],
      "matrix": [
        1.0,
        0.0,
        0.0,
        0.0,
        0.0,
        2.220446049250313e-16,
        -1.0,
        0.0,
        0.0,
        1.0,
        2.220446049250313e-16,
        0.0,
        0.0,
        0.0,
        0.0,
        1.0
      ],
      "name": "Sketchfab_model"
    },
    {
      "children": [
        2
      ],
      "name": "kozak.obj.cleaner.materialmerger.gles"
    },
    {
      "mesh": 0,
      "name": "Object_2"
    }
  ],
  "samplers": [
    {
      "magFilter": 9729,
      "minFilter": 9987,
      "wrapS": 10497,
      "wrapT": 10497
    }
  ],
  "scene": 0,
  "scenes": [
    {
      "name": "Sketchfab_Scene",
      "nodes": [
        0
      ]
    }
  ],
  "textures": [
    {
      "sampler": 0,
      "source": 0
    },
    {
      "sampler": 0,
      "source": 1
    },
    {
      "sampler": 0,
      "source": 2
    }
  ]
}
